<?xml version="1.0" standalone="no"?>
<!DOCTYPE svg PUBLIC "-//W3C//DTD SVG 20010904//EN"
 "http://www.w3.org/TR/2001/REC-SVG-20010904/DTD/svg10.dtd">
<svg version="1.0" xmlns="http://www.w3.org/2000/svg"
 width="861.000000pt" height="1280.000000pt" viewBox="0 0 861.000000 1280.000000"
 preserveAspectRatio="xMidYMid meet">
<g transform="translate(0.000000,1280.000000) scale(0.100000,-0.100000)"
fill="#000000" stroke="none">
<path d="M3143 12785 c-106 -20 -218 -52 -268 -78 -23 -12 -106 -62 -184 -112
-107 -68 -142 -96 -147 -115 -3 -14 -25 -97 -50 -186 -25 -88 -53 -206 -63
-263 l-19 -103 54 -63 c70 -82 71 -124 7 -217 -25 -37 -28 -38 -87 -38 -73 0
-131 -24 -169 -69 -15 -18 -27 -37 -27 -42 0 -4 -16 -17 -36 -27 l-36 -18 46
-56 45 -56 -72 -17 c-110 -26 -207 -76 -259 -134 -24 -27 -93 -89 -154 -138
-102 -84 -169 -153 -223 -231 -21 -30 -45 -72 -133 -229 -41 -73 -71 -168
-113 -354 -20 -89 -48 -197 -61 -242 -37 -125 -54 -220 -69 -388 -11 -121 -19
-170 -38 -215 -13 -33 -32 -82 -41 -111 l-17 -51 -52 26 c-69 36 -190 38 -254
4 -88 -46 -154 -141 -168 -242 -4 -29 10 -178 40 -415 168 -1357 152 -1244
186 -1313 33 -68 101 -131 163 -152 32 -10 34 -13 40 -77 7 -65 17 -96 42
-120 6 -7 18 -45 25 -84 10 -58 10 -80 -1 -118 -25 -90 -28 -138 -19 -284 9
-157 45 -359 80 -454 12 -32 41 -94 65 -138 51 -95 74 -178 81 -297 6 -82 4
-89 -16 -105 -12 -10 -27 -36 -33 -58 -6 -23 -14 -256 -19 -555 -5 -283 -11
-538 -15 -567 -8 -69 10 -147 48 -206 l31 -48 -29 -57 -30 -57 -59 -5 c-38 -3
-74 -13 -97 -28 -68 -42 -203 -213 -269 -342 l-34 -65 -1 -152 c-1 -182 -2
-183 -125 -276 -89 -68 -114 -102 -154 -220 -9 -26 -44 -89 -78 -140 -48 -74
-69 -118 -103 -225 -53 -165 -68 -236 -62 -304 5 -61 55 -191 100 -261 30 -46
31 -51 24 -125 -4 -42 -11 -106 -17 -142 -10 -64 -11 -93 -8 -157 1 -22 -13
-53 -50 -108 -48 -72 -56 -94 -52 -136 1 -9 -30 -63 -69 -120 -56 -83 -77
-124 -102 -204 -34 -106 -35 -117 -27 -358 5 -142 4 -140 79 -163 34 -10 35
-13 36 -60 1 -27 4 -75 8 -107 7 -53 11 -61 49 -89 23 -17 78 -48 122 -69 l80
-38 248 -13 c194 -9 279 -9 393 0 81 7 150 15 156 18 5 3 9 40 9 82 -1 43 2
98 5 123 7 57 -14 103 -84 180 -50 55 -186 292 -184 319 1 8 2 109 2 224 1
195 3 213 24 266 37 91 116 344 122 394 6 42 9 46 34 46 15 0 85 29 156 64
139 69 175 99 239 200 20 32 68 100 107 150 82 106 109 157 131 248 23 92 88
241 223 512 105 210 119 232 159 260 53 37 57 50 13 40 -32 -6 -31 -5 20 35
169 134 279 415 252 646 -10 89 5 125 100 231 51 57 75 94 93 143 48 129 118
492 153 796 10 83 19 152 21 154 2 3 14 -6 27 -18 l24 -23 5 29 c3 15 9 67 12
116 4 48 11 87 16 87 5 0 31 -11 57 -24 86 -44 126 -100 262 -361 45 -88 106
-196 135 -240 56 -84 71 -127 105 -290 43 -205 91 -305 144 -305 51 0 111 -80
136 -182 11 -43 10 -49 -31 -129 -26 -52 -49 -116 -60 -169 -9 -47 -20 -92
-24 -102 -5 -12 1 -18 23 -23 16 -3 39 -16 50 -28 l21 -23 -26 -64 c-22 -53
-27 -86 -31 -178 -6 -145 9 -240 60 -372 22 -58 53 -141 70 -185 17 -44 34
-114 38 -157 6 -48 19 -101 39 -145 16 -38 33 -91 36 -119 7 -48 9 -51 59 -79
28 -15 81 -50 118 -77 l68 -48 137 0 c75 0 133 -4 128 -8 -16 -14 -86 -31
-158 -38 -37 -4 -70 -11 -73 -16 -3 -4 4 -23 15 -42 16 -25 21 -50 21 -103 0
-38 7 -94 16 -124 13 -42 17 -94 16 -235 l-1 -181 -66 -106 c-75 -119 -91
-172 -101 -325 -6 -89 -4 -102 19 -159 l25 -61 -23 -34 c-21 -31 -21 -38 -12
-113 11 -90 14 -94 102 -126 52 -19 95 -23 330 -33 149 -7 281 -9 294 -6 20 5
27 16 37 58 6 29 13 54 15 56 2 3 80 -4 174 -15 152 -17 172 -21 187 -42 10
-12 20 -30 23 -39 4 -11 22 -19 52 -24 38 -5 49 -4 59 11 17 23 80 13 87 -14
3 -14 16 -20 52 -23 32 -2 49 1 52 9 7 19 79 17 87 -2 4 -12 29 -15 133 -15
185 0 337 26 449 75 l51 23 -5 58 c-2 33 -10 64 -18 70 -7 6 -22 38 -33 72
-45 144 -116 212 -225 212 -121 1 -205 17 -244 48 -49 39 -63 45 -159 72 -70
19 -85 27 -105 56 -13 19 -41 47 -62 62 -26 18 -47 45 -62 78 -17 39 -51 78
-146 167 -108 102 -125 123 -136 163 -7 26 -27 65 -44 86 -18 24 -37 63 -45
98 -12 54 -11 62 8 107 11 26 25 58 30 71 8 21 11 22 30 8 20 -13 25 -12 63
15 22 17 41 35 40 40 -1 5 -2 24 -2 43 -2 23 -14 47 -42 79 -22 25 -40 48 -40
52 0 14 72 100 98 115 23 14 30 29 40 81 10 56 9 72 -7 126 -10 34 -17 64 -14
67 3 2 -4 35 -16 73 -11 37 -27 95 -34 128 -8 33 -28 98 -45 145 -51 144 -73
275 -83 495 -9 205 -22 355 -39 459 -9 54 -7 62 19 115 60 118 102 269 57 205
-51 -72 -51 -72 -48 16 4 89 -14 194 -55 330 -34 114 -80 202 -158 305 l-65
85 20 80 20 80 -23 104 c-18 78 -34 121 -65 173 -74 122 -97 192 -152 455 -48
230 -100 363 -224 573 -36 61 -73 132 -82 158 -10 29 -53 96 -111 170 -145
187 -161 228 -146 382 l8 79 42 9 c28 5 51 18 67 37 47 56 57 135 66 515 8
329 16 448 40 604 14 87 22 112 91 271 32 75 81 197 109 273 l50 138 -30 44
c-16 24 -30 47 -30 52 0 4 12 38 27 76 l27 69 -32 58 c-35 64 -40 97 -16 107
27 10 70 -19 366 -250 156 -121 317 -244 358 -274 41 -30 93 -67 115 -84 48
-35 248 -89 333 -89 94 0 181 20 216 49 17 15 49 40 71 56 22 16 72 56 110 90
86 76 114 95 138 95 34 0 75 39 103 98 32 68 52 92 124 145 72 52 84 69 117
152 17 44 42 87 70 116 23 25 50 62 58 82 10 25 22 37 35 37 11 0 20 4 20 9 0
5 3 17 6 25 5 12 2 15 -11 9 -17 -6 -17 -5 -2 23 9 16 28 69 42 119 24 83 25
94 14 161 l-12 71 62 86 c34 47 89 110 122 141 51 46 62 61 66 96 3 24 21 64
39 92 35 52 44 101 24 138 -8 15 -5 31 15 67 26 51 26 111 -1 134 -11 9 -9 23
12 77 26 70 25 103 -3 135 -15 16 -15 17 2 17 11 0 33 14 50 30 24 23 44 32
85 37 46 5 54 10 64 35 10 28 11 28 95 28 47 0 283 5 525 11 379 9 445 9 469
-4 30 -16 70 -12 88 9 9 11 42 14 135 14 138 0 144 3 144 75 0 72 -5 75 -147
75 -74 0 -141 5 -160 12 -28 10 -39 10 -66 -4 -27 -13 -102 -18 -462 -27 -605
-16 -609 -16 -627 10 -13 20 -28 23 -167 32 l-153 10 7 41 c4 23 6 88 5 146
-1 88 -4 110 -21 133 -15 21 -19 36 -14 60 12 60 17 67 51 82 19 8 38 25 43
38 8 19 19 26 57 32 69 10 289 125 370 193 37 31 92 90 121 131 44 61 53 81
53 116 0 63 -56 130 -150 179 -129 68 -239 81 -445 56 -127 -16 -396 -17 -452
-1 -38 10 -42 14 -45 48 -5 66 -50 51 -57 -19 -1 -5 -12 -8 -26 -8 -18 0 -28
7 -35 25 -5 14 -13 25 -18 25 -38 0 -246 -218 -342 -356 -48 -70 -51 -76 -31
-81 23 -6 34 -31 35 -82 1 -43 24 -59 63 -45 25 8 36 4 99 -37 123 -82 314
-169 369 -169 7 0 25 -16 40 -36 19 -24 33 -34 46 -31 43 11 73 -76 45 -131
-19 -37 -21 -124 -4 -221 11 -66 6 -101 -10 -74 -9 15 -424 52 -517 46 l-70
-5 -133 120 c-83 75 -144 122 -162 125 -16 4 -136 9 -268 13 l-238 7 -79 -114
c-43 -63 -92 -130 -109 -149 -17 -19 -42 -56 -56 -82 -21 -40 -30 -48 -53 -48
-15 0 -30 -7 -33 -15 -10 -26 -95 -41 -121 -22 -21 15 -26 -18 -20 -110 7 -92
10 -101 29 -86 30 22 118 2 118 -27 0 -11 6 -23 14 -27 11 -6 -8 -24 -71 -68
-47 -32 -117 -90 -155 -128 l-70 -69 -29 28 c-16 15 -46 53 -66 84 -21 30 -50
69 -66 86 l-29 32 22 68 c28 93 35 172 22 252 -24 149 -30 180 -47 247 -44
186 -44 179 -25 340 10 83 19 150 19 150 1 1 43 -3 94 -8 174 -16 314 -1 339
37 21 31 7 52 -49 80 -112 55 -320 215 -489 377 -160 153 -174 162 -224 154
-38 -6 -42 -5 -83 39 -43 47 -114 80 -335 157 -133 47 -348 61 -499 34z m340
-922 c178 -7 230 -23 75 -23 -193 0 -562 15 -518 21 66 9 253 10 443 2z m-766
-85 c-2 -18 -4 -6 -4 27 0 33 2 48 4 33 2 -15 2 -42 0 -60z m923 42 c0 -12
-393 -12 -460 -1 -29 6 46 9 208 10 162 1 252 -3 252 -9z m-10 -40 c0 -6 -100
-10 -280 -10 -180 0 -280 4 -280 10 0 6 100 10 280 10 180 0 280 -4 280 -10z
m-11 -36 c8 -7 -455 -2 -509 6 -30 4 71 5 225 2 154 -3 282 -6 284 -8z m-14
-34 c4 -7 -88 -10 -270 -10 -182 0 -274 3 -270 10 4 6 105 10 270 10 165 0
266 -4 270 -10z m-5 -37 c0 -5 -100 -7 -222 -5 -416 4 -454 8 -115 10 185 1
337 -1 337 -5z m-80 -36 c41 -2 -30 -4 -158 -5 -128 -1 -231 1 -229 6 5 6 203
6 387 -1z m67 -29 c-2 -9 -23 -13 -63 -12 -32 1 -167 3 -299 5 -282 3 -185 14
158 17 163 2 208 -1 204 -10z m-9 -40 c-3 -7 -14 -13 -26 -12 -12 0 -140 2
-284 4 -223 3 -243 5 -133 10 293 12 447 11 443 -2z m2150 -117 c54 -43 92
-87 92 -106 0 -12 -61 -65 -74 -65 -3 0 -6 7 -6 16 0 11 -8 14 -27 12 -16 -2
-27 -8 -25 -15 1 -8 -8 -13 -23 -13 -16 0 -25 6 -25 16 0 19 -40 9 -53 -12
-11 -19 -36 -18 -43 1 -4 8 -17 15 -30 15 -15 0 -24 -6 -24 -15 0 -8 -9 -15
-20 -15 -11 0 -23 7 -26 15 -4 8 -17 15 -30 15 -15 0 -24 -6 -24 -15 0 -9 -9
-15 -25 -15 -14 0 -25 5 -25 10 0 6 -11 10 -25 10 -14 0 -25 -4 -25 -9 0 -15
-38 -20 -44 -5 -3 8 -19 14 -36 14 -16 0 -30 5 -30 10 0 16 81 174 94 182 6 4
99 8 208 8 l196 0 50 -39z m912 -531 c0 -5 -7 -10 -16 -10 -8 0 -12 5 -9 10 3
6 10 10 16 10 5 0 9 -4 9 -10z m-190 -15 c0 -10 10 -15 29 -15 16 0 31 6 35
15 3 8 12 15 20 15 24 0 23 -34 -1 -53 -12 -10 -28 -36 -34 -58 -15 -48 -40
-49 -50 -3 -9 45 -16 52 -56 60 -31 6 -40 3 -59 -19 -12 -14 -30 -47 -39 -74
-10 -26 -35 -87 -56 -134 -22 -47 -39 -91 -39 -97 0 -7 -4 -12 -9 -12 -5 0
-12 20 -15 45 -4 24 -18 88 -31 142 -13 54 -21 101 -19 105 3 5 16 8 30 8 13
0 24 5 24 12 0 27 34 48 76 48 24 0 46 5 49 10 10 16 45 12 45 -5 0 -10 10
-15 30 -15 23 0 30 4 30 20 0 13 7 20 20 20 11 0 20 -7 20 -15z m-453 -57 c-2
-19 4 -24 28 -26 l31 -3 38 -177 c20 -97 40 -189 42 -204 10 -53 -23 -136 -75
-188 -64 -64 -132 -88 -301 -106 -74 -8 -168 -18 -208 -22 -40 -5 -75 -5 -78
0 -3 4 -38 6 -77 3 -95 -6 -107 -2 -107 40 0 31 3 34 40 40 69 12 127 80 113
133 -9 36 52 53 194 55 122 2 123 2 152 32 18 17 52 81 81 150 46 106 51 126
48 178 -3 56 -2 60 32 87 42 36 50 37 47 8z m-457 -58 c0 -5 -7 -10 -16 -10
-8 0 -12 5 -9 10 3 6 10 10 16 10 5 0 9 -4 9 -10z m315 1 c3 -5 6 -29 7 -53 1
-31 -10 -70 -42 -143 -63 -145 -63 -145 -183 -145 l-100 0 6 38 c4 23 1 47 -7
64 -16 29 -11 29 44 1 37 -19 97 -16 119 6 10 10 22 38 26 61 8 47 -5 66 -76
116 -22 15 -39 35 -39 45 0 18 10 19 119 19 66 0 122 -4 126 -9z m285 -604
c-6 -30 -24 -76 -41 -102 -16 -25 -36 -74 -44 -107 -16 -68 -19 -73 -48 -73
-14 0 -23 -7 -25 -20 -1 -11 -10 -46 -20 -78 l-17 -59 -57 7 c-53 5 -63 3
-120 -28 -35 -19 -76 -37 -93 -40 -16 -3 -38 -9 -47 -12 -12 -5 -24 4 -43 34
-29 46 -149 140 -269 209 l-78 46 53 12 c30 6 71 15 91 18 23 4 39 14 43 25 7
22 72 34 305 56 85 8 178 21 205 30 68 20 146 67 181 108 16 19 31 33 32 31 2
-1 -1 -27 -8 -57z m-1240 -17 c0 -13 -11 -13 -30 0 -12 8 -11 10 8 10 12 0 22
-4 22 -10z m-2097 -4830 c-7 -28 -13 -25 -13 6 0 14 4 23 9 20 5 -3 7 -15 4
-26z m2187 -3330 c54 -54 77 -165 29 -140 -33 18 -69 82 -69 122 0 42 11 47
40 18z"/>
</g>
</svg>
